<svg width="148" height="58" viewBox="0 0 148 58" fill="none" xmlns="http://www.w3.org/2000/svg">
<path stroke="#E07A5F" d="M38.392 6.936C38.392 8.728 38.4347 11.416 38.52 15C39.672 15 40.952 14.8507 42.36 14.552C42.7013 14.5093 43.192 14.4453 43.832 14.36C44.472 14.2747 45.0053 14.232 45.432 14.232C46.1573 14.232 46.7973 14.36 47.352 14.616C47.9067 14.872 48.184 15.32 48.184 15.96C48.184 16.728 47.224 17.1973 45.304 17.368C43.4267 17.496 41.1653 17.56 38.52 17.56C38.52 26.4773 37.7947 30.936 36.344 30.936C35.832 30.936 35.4907 30.2533 35.32 28.888C35.1493 27.48 35.064 26.1787 35.064 24.984L35.128 15C35.128 11.7573 35.0427 8.83466 34.872 6.232C34.8293 5.29333 34.5733 4.58933 34.104 4.12C33.6347 3.65066 32.9733 3.20266 32.12 2.776C32.0347 2.73333 31.8427 2.62666 31.544 2.456C31.2453 2.28533 31.0107 2.11466 30.84 1.944C30.712 1.73066 30.648 1.51733 30.648 1.304C30.648 0.962663 30.7973 0.706664 31.096 0.535999C31.3947 0.365332 31.736 0.279999 32.12 0.279999C33.272 0.279999 34.3173 0.599998 35.256 1.24C36.2373 1.88 37.0053 2.712 37.56 3.736C38.1147 4.76 38.392 5.82667 38.392 6.936ZM9.84799 44.44C9.84799 44.1413 9.99733 43.9493 10.296 43.864C10.5947 43.7787 10.8933 43.7573 11.192 43.8C14.6907 44.1413 17.9333 44.312 20.92 44.312C25.3147 44.312 29.4533 44.1627 33.336 43.864C33.4213 43.0533 33.4853 42.1573 33.528 41.176C33.5707 40.152 33.592 39.448 33.592 39.064C33.592 37.784 33.6133 36.824 33.656 36.184L16.696 36.888C15.5867 36.9307 14.3067 36.7813 12.856 36.44C11.4053 36.056 10.68 35.416 10.68 34.52C10.68 34.0933 11.0213 33.88 11.704 33.88C12.3867 33.88 13.112 33.944 13.88 34.072C14.136 34.1147 14.4347 34.1573 14.776 34.2C15.1173 34.2427 15.5227 34.264 15.992 34.264L23.48 34.328C27.4053 34.328 30.5413 34.1147 32.888 33.688C33.1867 33.6453 33.656 33.5387 34.296 33.368C34.9787 33.1973 35.4053 33.112 35.576 33.112C36.0453 33.112 36.3867 33.3253 36.6 33.752C36.856 34.136 36.984 34.584 36.984 35.096C36.984 36.9307 36.856 39.64 36.6 43.224C36.984 43.224 37.304 43.352 37.56 43.608C37.8587 43.8213 38.008 44.12 38.008 44.504C38.008 45.1867 37.688 45.656 37.048 45.912C36.4507 46.1253 35.6827 46.2533 34.744 46.296C29.9653 46.6373 23.6293 46.808 15.736 46.808C15.8213 47.6187 15.864 48.856 15.864 50.52C15.864 52.184 15.8213 53.4213 15.736 54.232C15.7787 54.4453 16.0133 54.616 16.44 54.744C16.9093 54.9147 17.2933 55 17.592 55C25.1013 55 31.352 54.7653 36.344 54.296C36.728 54.2533 37.176 54.168 37.688 54.04C38.2 53.9547 38.6267 53.912 38.968 53.912C39.9067 53.912 40.376 54.2533 40.376 54.936C40.376 56.0027 38.0933 56.6853 33.528 56.984C28.9627 57.3253 24.568 57.496 20.344 57.496L17.464 57.56C16.0133 57.56 14.84 57.3467 13.944 56.92C13.048 56.536 12.6 55.768 12.6 54.616V51.032C12.6 49.0693 12.536 47.576 12.408 46.552C11.896 46.3813 11.3413 46.0827 10.744 45.656C10.1467 45.2293 9.84799 44.824 9.84799 44.44ZM6.96799 17.816C6.96799 18.3707 6.94666 18.8187 6.90399 19.16L6.83999 21.144C6.83999 23.96 7.58666 25.368 9.07999 25.368C11.9813 25.368 15.9493 25.048 20.984 24.408C21.1973 22.0187 21.3253 19.6507 21.368 17.304L6.96799 17.816ZM0.567993 7.832C0.567993 7.02133 0.951993 6.616 1.71999 6.616C3.12799 6.616 4.17333 7.08533 4.85599 8.024C5.58133 8.92 6.05066 9.88 6.26399 10.904C6.47733 11.928 6.66933 13.3787 6.83999 15.256C10.8933 15.256 15.7573 15.1067 21.432 14.808C21.432 12.9733 21.368 11.16 21.24 9.368C21.1547 8.344 20.9627 7.61866 20.664 7.192C20.3653 6.72267 19.96 6.33867 19.448 6.04C18.9787 5.69867 18.744 5.35733 18.744 5.016C18.744 4.248 19.128 3.864 19.896 3.864C21.944 3.864 23.2453 4.71733 23.8 6.424C24.3973 8.13066 24.696 10.2427 24.696 12.76V14.936C24.696 23.7253 23.8427 28.12 22.136 28.12C21.7947 28.12 21.5173 27.992 21.304 27.736C21.1333 27.48 21.0053 27.1813 20.92 26.84C19.2987 27.3093 17.6133 27.608 15.864 27.736C14.1147 27.8213 11.832 27.864 9.01599 27.864C7.26666 27.864 6.05066 27.7147 5.36799 27.416C4.81333 27.2027 4.40799 26.1787 4.15199 24.344C3.93866 22.4667 3.76799 19.9707 3.63999 16.856C3.55466 14.3813 3.44799 12.8453 3.31999 12.248C3.14933 11.48 2.93599 10.8187 2.67999 10.264C2.42399 9.66667 2.03999 9.21867 1.52799 8.92C1.48533 8.87733 1.31466 8.77067 1.01599 8.6C0.717326 8.42933 0.567993 8.17333 0.567993 7.832Z" fill="none"/>
<path stroke="#E07A5F" d="M89.71 55.192C89.1553 55.192 88.7927 54.488 88.622 53.08C88.4513 51.7147 88.366 50.4347 88.366 49.24C88.366 46.7227 88.4513 42.9467 88.622 37.912C88.7927 32.8773 88.878 29.08 88.878 26.52V19.16C88.878 14.1253 88.7713 9.816 88.558 6.232C88.5153 5.29333 88.2593 4.58933 87.79 4.12C87.3207 3.65066 86.6593 3.20266 85.806 2.776C85.7207 2.73333 85.5287 2.62666 85.23 2.456C84.9313 2.28533 84.6967 2.11466 84.526 1.944C84.398 1.73066 84.334 1.51733 84.334 1.304C84.334 0.962663 84.462 0.706664 84.718 0.535999C85.0167 0.365332 85.3367 0.279999 85.678 0.279999C87.4273 0.279999 88.9207 0.941331 90.158 2.264C91.438 3.58666 92.078 5.12266 92.078 6.872V24.792H93.486C94.254 24.792 95.3633 24.664 96.814 24.408C97.07 24.3653 97.518 24.3013 98.158 24.216C98.798 24.1307 99.374 24.088 99.886 24.088C100.739 24.088 101.401 24.216 101.87 24.472C102.382 24.6853 102.638 25.176 102.638 25.944C102.638 26.584 101.763 26.9893 100.014 27.16C98.2647 27.288 96.366 27.352 94.318 27.352L92.078 27.288V33.112C92.078 39.8107 91.9287 45.2933 91.63 49.56C91.5447 50.4133 91.31 51.5653 90.926 53.016C90.5847 54.4667 90.1793 55.192 89.71 55.192ZM52.782 41.432C52.8247 40.8773 53.166 40.3653 53.806 39.896C58.2433 36.2267 62.2113 32.088 65.71 27.48C69.2513 22.872 71.6833 18.2 73.006 13.464L61.934 14.36C60.8247 14.4453 59.5447 14.3173 58.094 13.976C56.6433 13.592 55.918 12.9307 55.918 11.992C55.918 11.5653 56.2593 11.352 56.942 11.352C57.6247 11.352 58.35 11.416 59.118 11.544C59.374 11.5867 59.6727 11.6293 60.014 11.672C60.3553 11.7147 60.7607 11.736 61.23 11.736C66.094 11.736 69.8913 11.48 72.622 10.968C72.9207 10.9253 73.3473 10.84 73.902 10.712C74.4567 10.5413 74.926 10.4347 75.31 10.392C75.7793 10.392 76.142 10.584 76.398 10.968C76.654 11.3093 76.782 11.7147 76.782 12.184C76.782 14.104 75.9927 16.536 74.414 19.48C72.8353 22.424 71.1927 25.048 69.486 27.352C71.3633 30.04 73.326 32.3653 75.374 34.328C77.422 36.2907 79.7047 37.8267 82.222 38.936C82.6487 39.1493 83.0113 39.3627 83.31 39.576C83.6087 39.7467 83.7793 40.0027 83.822 40.344C83.7367 40.9413 83.182 41.24 82.158 41.24C79.7687 41.24 77.23 40.0667 74.542 37.72C71.854 35.3307 69.5073 32.728 67.502 29.912C66.606 31.0213 65.2193 32.536 63.342 34.456C61.4647 36.376 59.5873 38.104 57.71 39.64C55.8327 41.1333 54.4033 41.88 53.422 41.88C53.038 41.88 52.8247 41.7307 52.782 41.432Z" fill="none"/>
<path stroke="#E07A5F" d="M121.06 56.152C120.548 56.152 120.207 55.448 120.036 54.04C119.865 52.6747 119.78 51.3947 119.78 50.2L119.716 36.184C114.852 36.696 111.161 36.952 108.644 36.952C107.535 36.952 106.489 36.8027 105.508 36.504C104.569 36.1627 103.951 35.5867 103.652 34.776C103.652 34.3067 104.079 34.072 104.932 34.072C106.809 34.2 108.687 34.264 110.564 34.264C118.073 34.264 126.201 33.432 134.948 31.768C135.289 31.6827 135.716 31.5547 136.228 31.384C136.74 31.1707 137.167 31.064 137.508 31.064C138.489 31.064 138.98 31.4693 138.98 32.28C138.98 33.7307 134.201 34.8827 124.644 35.736C123.535 35.8213 123.023 35.864 123.108 35.864V41.752C123.108 45.6347 123.065 48.5573 122.98 50.52C122.895 51.416 122.681 52.568 122.34 53.976C121.999 55.4267 121.572 56.152 121.06 56.152ZM106.468 27.352C106.468 26.968 106.575 26.6267 106.788 26.328C107.044 26.0293 107.343 25.816 107.684 25.688C112.207 23.7253 116.111 21.656 119.396 19.48C122.724 17.304 125.54 14.616 127.844 11.416L115.812 12.376C115.257 12.4187 114.489 12.376 113.508 12.248C112.527 12.12 111.652 11.8853 110.884 11.544C110.159 11.16 109.796 10.648 109.796 10.008C109.796 9.58133 110.137 9.368 110.82 9.368C111.503 9.368 112.228 9.432 112.996 9.56C113.252 9.60266 113.551 9.64533 113.892 9.688C114.233 9.73067 114.639 9.752 115.108 9.752C119.503 9.752 123.513 9.47467 127.14 8.92C127.737 8.83467 128.185 8.74933 128.484 8.664C129.252 8.45066 129.913 8.344 130.468 8.344C130.895 8.344 131.236 8.536 131.492 8.92C131.791 9.304 131.94 9.70933 131.94 10.136C131.94 11.3307 131.151 12.8027 129.572 14.552C128.036 16.2587 126.457 17.752 124.836 19.032C126.244 20.2267 127.716 21.1653 129.252 21.848C130.788 22.488 132.623 23.1067 134.756 23.704C135.993 23.96 136.612 24.3653 136.612 24.92C136.612 25.3467 136.292 25.6667 135.652 25.88C135.055 26.0933 134.457 26.2 133.86 26.2C132.025 26.2 130.02 25.6667 127.844 24.6C125.668 23.5333 123.855 22.296 122.404 20.888C120.143 22.424 117.476 24.0027 114.404 25.624C111.375 27.2027 109.071 27.992 107.492 27.992C106.809 27.992 106.468 27.7787 106.468 27.352ZM114.404 2.392C114.404 2.136 114.468 1.92267 114.596 1.752C114.767 1.53867 114.98 1.432 115.236 1.432C115.663 1.432 116.473 1.64533 117.668 2.072C118.991 2.49866 120.057 2.81866 120.868 3.032C121.679 3.20266 122.468 3.288 123.236 3.288C123.876 3.288 124.516 3.224 125.156 3.096C126.009 3.01066 126.649 2.968 127.076 2.968C127.417 2.968 127.716 3.096 127.972 3.352C128.228 3.56533 128.356 3.84266 128.356 4.184C128.356 5.208 126.585 5.72 123.044 5.72C120.825 5.72 118.82 5.54933 117.028 5.208C115.279 4.824 114.404 3.88533 114.404 2.392ZM140.132 1.304C140.132 1.048 140.26 0.813332 140.516 0.599998C140.815 0.386665 141.092 0.279999 141.348 0.279999C142.159 0.279999 143.076 0.557332 144.1 1.112C145.124 1.624 145.977 2.22133 146.66 2.904C147.215 3.416 147.556 3.992 147.684 4.632C147.812 5.272 147.876 6.12533 147.876 7.192V12.056L147.94 31.64C147.94 39.064 147.769 45.0373 147.428 49.56C147.343 50.456 147.129 51.608 146.788 53.016C146.447 54.4667 146.02 55.192 145.508 55.192C144.953 55.192 144.591 54.488 144.42 53.08C144.249 51.7147 144.164 50.4347 144.164 49.24C144.164 46.7227 144.249 42.9467 144.42 37.912C144.591 32.8773 144.676 29.08 144.676 26.52L144.74 16.344C144.74 12.2053 144.612 8.83466 144.356 6.232C144.228 5.29333 143.929 4.58933 143.46 4.12C143.033 3.65066 142.415 3.20266 141.604 2.776C141.049 2.47733 140.665 2.24267 140.452 2.072C140.239 1.85867 140.132 1.60266 140.132 1.304Z" fill="none"/>
</svg>
