<svg width="200" height="58" viewBox="0 0 200 58" fill="none" xmlns="http://www.w3.org/2000/svg">
<path d="M36.008 55.192C35.4534 55.192 35.0907 54.488 34.92 53.08C34.7494 51.7147 34.664 50.4347 34.664 49.24C34.664 47.3627 34.7494 44.504 34.92 40.664C35.0907 37.4213 35.176 34.968 35.176 33.304C32.7014 33.688 30.76 33.9653 29.352 34.136C27.944 34.3067 26.5147 34.392 25.064 34.392C23.8267 34.392 22.6534 34.0507 21.544 33.368C20.4347 34.648 19.048 35.6293 17.384 36.312C15.7627 36.952 14.0347 37.272 12.2 37.272C9.98137 37.272 7.93337 36.824 6.05604 35.928C4.22137 34.9893 2.74937 33.688 1.64004 32.024C0.573372 30.3173 0.0400391 28.3547 0.0400391 26.136C0.0400391 22.808 0.893372 20.0773 2.60004 17.944C4.34937 15.768 6.82404 14.0613 10.024 12.824C10.3654 12.696 10.8134 12.2693 11.368 11.544C12.008 10.7333 12.5414 10.328 12.968 10.328C13.3947 10.328 13.7147 10.52 13.928 10.904C14.184 11.288 14.312 11.7147 14.312 12.184C14.312 12.9947 14.12 13.528 13.736 13.784C14.9734 13.912 16.2747 14.3387 17.64 15.064C19.0054 15.7467 20.1787 16.5787 21.16 17.56C21.5867 17.3467 21.992 17.24 22.376 17.24C22.7174 17.24 23.016 17.2613 23.272 17.304C23.528 17.3467 23.7414 17.3893 23.912 17.432C24.424 17.56 24.9147 17.624 25.384 17.624C27.2187 17.624 29.928 17.368 33.512 16.856C33.896 16.7707 34.4294 16.6853 35.112 16.6C35.112 15.2773 35.0907 14.296 35.048 13.656C35.048 10.328 34.984 7.85333 34.856 6.232C34.8134 5.29333 34.5574 4.58933 34.088 4.12C33.6187 3.65066 32.9574 3.18133 32.104 2.712C31.592 2.456 31.208 2.24267 30.952 2.072C30.7387 1.85867 30.632 1.60266 30.632 1.304C30.632 1.00533 30.7814 0.770665 31.08 0.599998C31.3787 0.386665 31.6774 0.279999 31.976 0.279999C32.7014 0.279999 33.576 0.557332 34.6 1.112C35.624 1.66666 36.4774 2.264 37.16 2.904C37.7147 3.37333 38.056 3.94933 38.184 4.632C38.312 5.272 38.376 6.12533 38.376 7.192V12.056L38.44 31.64C38.44 39.064 38.2694 45.0373 37.928 49.56C37.8427 50.456 37.6294 51.608 37.288 53.016C36.9467 54.4667 36.52 55.192 36.008 55.192ZM3.17604 26.264C3.17604 28.696 4.02937 30.6587 5.73604 32.152C7.48537 33.6027 9.59737 34.328 12.072 34.328C14.9307 34.328 17.128 33.56 18.664 32.024C20.2 30.4453 20.968 28.248 20.968 25.432C20.968 23.5973 20.6694 22.1467 20.072 21.08C19.5174 19.9707 18.8347 19.16 18.024 18.648C17.2134 18.136 16.1894 17.624 14.952 17.112C14.0134 16.728 13.3307 16.408 12.904 16.152C12.4774 15.896 12.136 15.576 11.88 15.192C8.93604 16.1307 6.73871 17.4533 5.28804 19.16C3.88004 20.8667 3.17604 23.2347 3.17604 26.264ZM22.632 19.544C23.6134 21.336 24.104 23.5547 24.104 26.2C24.104 28.0773 23.6774 29.8693 22.824 31.576C23.0374 31.576 23.336 31.6187 23.72 31.704C24.1467 31.7467 24.5307 31.768 24.872 31.768C26.664 31.768 29.352 31.512 32.936 31L35.176 30.68V19.224L33.64 19.416C30.3974 19.9707 27.7094 20.248 25.576 20.248C24.3387 20.248 23.3574 20.0133 22.632 19.544Z" fill="none"/>
<path stroke="#B3614C" d="M91.102 36.44C90.59 36.44 90.2487 35.736 90.078 34.328C89.9074 32.92 89.822 31.64 89.822 30.488V27.864L90.014 22.552V19.928C88.222 20.184 85.534 20.3547 81.95 20.44C81.95 23.7253 81.8434 26.6693 81.63 29.272C81.4594 31.832 80.926 33.112 80.03 33.112C79.4754 33.112 79.1127 32.4293 78.942 31.064C78.7714 29.656 78.686 28.3547 78.686 27.16L78.75 18.328C78.75 14.2747 78.622 10.9467 78.366 8.344C78.2807 7.40533 78.0034 6.70133 77.534 6.232C77.0647 5.72 76.4034 5.22933 75.55 4.76C75.038 4.46133 74.6754 4.22666 74.462 4.056C74.2487 3.88533 74.142 3.65067 74.142 3.352C74.142 3.05333 74.2914 2.81867 74.59 2.648C74.8887 2.47733 75.2087 2.392 75.55 2.392C77.214 2.392 78.6647 3.032 79.902 4.312C81.182 5.54933 81.822 6.97867 81.822 8.6V10.904L81.95 15.512V17.816C85.1074 17.7307 87.7954 17.56 90.014 17.304V14.168C90.014 10.6267 89.9287 7.98133 89.758 6.232C89.6727 5.29333 89.3954 4.58933 88.926 4.12C88.4567 3.65066 87.7954 3.18133 86.942 2.712C86.43 2.456 86.046 2.24267 85.79 2.072C85.5767 1.85867 85.47 1.60266 85.47 1.304C85.47 0.962663 85.6194 0.706664 85.918 0.535999C86.2594 0.365332 86.6007 0.279999 86.942 0.279999C88.6487 0.279999 90.1207 0.962666 91.358 2.328C92.5954 3.69333 93.214 5.208 93.214 6.872L93.278 18.776V22.552C93.278 31.8107 92.5527 36.44 91.102 36.44ZM49.886 11.8C49.886 11.6293 49.9714 11.48 50.142 11.352C50.3127 11.224 50.5047 11.16 50.718 11.16C51.742 11.16 52.8514 11.2667 54.046 11.48C54.3447 11.5227 54.8567 11.5867 55.582 11.672C56.3074 11.7573 56.9687 11.8 57.566 11.8H60.51C64.094 11.8 67.102 11.6933 69.534 11.48C69.7474 11.4373 70.2167 11.3307 70.942 11.16C71.07 11.1173 71.3047 11.0533 71.646 10.968C72.03 10.8827 72.3927 10.84 72.734 10.84C73.1607 10.84 73.502 10.9467 73.758 11.16C74.014 11.3733 74.142 11.672 74.142 12.056C74.142 12.952 72.7554 13.5707 69.982 13.912C67.2514 14.2107 64.03 14.36 60.318 14.36L55.774 14.296C54.5367 14.296 53.2354 14.104 51.87 13.72C50.5474 13.336 49.886 12.696 49.886 11.8ZM54.11 26.136C54.11 23.7893 54.75 21.9333 56.03 20.568C57.31 19.2027 59.1447 18.1573 61.534 17.432C61.79 17.3467 62.1954 17.112 62.75 16.728C63.3047 16.344 63.6674 16.152 63.838 16.152C63.9234 16.152 64.094 16.1947 64.35 16.28L64.798 17.624C66.8887 17.9653 68.638 18.84 70.046 20.248C71.454 21.656 72.158 23.384 72.158 25.432C72.158 28.248 71.3474 30.424 69.726 31.96C68.1047 33.4533 65.886 34.2 63.07 34.2C60.51 34.2 58.3767 33.496 56.67 32.088C54.9634 30.6373 54.11 28.6533 54.11 26.136ZM55.582 5.272C55.582 5.016 55.646 4.80266 55.774 4.632C55.902 4.41866 56.094 4.312 56.35 4.312C56.734 4.312 57.246 4.41866 57.886 4.632C58.526 4.84533 58.9527 4.99467 59.166 5.08C61.1714 5.80533 62.6647 6.168 63.646 6.168C64.0727 6.168 64.7554 6.08267 65.694 5.912C65.9074 5.86933 66.1634 5.82667 66.462 5.784C66.8034 5.74133 67.1874 5.72 67.614 5.72C67.998 5.72 68.318 5.848 68.574 6.104C68.83 6.31733 68.958 6.616 68.958 7C68.958 7.64 68.3394 8.06667 67.102 8.28C65.9074 8.49333 64.6914 8.6 63.454 8.6C58.206 8.6 55.582 7.49067 55.582 5.272ZM57.246 26.136C57.246 27.7147 57.8007 29.016 58.91 30.04C60.062 31.0213 61.4274 31.512 63.006 31.512C64.8834 31.512 66.334 31.0213 67.358 30.04C68.4247 29.0587 68.958 27.6293 68.958 25.752C68.958 24.2587 68.6807 23.2133 68.126 22.616C67.5714 21.976 66.7394 21.4213 65.63 20.952C65.5447 20.9093 65.2247 20.7813 64.67 20.568C64.158 20.312 63.7314 19.9707 63.39 19.544L62.11 20.12C60.9154 20.632 59.998 21.08 59.358 21.464C58.718 21.848 58.206 22.424 57.822 23.192C57.438 23.9173 57.246 24.8987 57.246 26.136ZM68.062 47.512C68.062 45.336 68.4887 43.5867 69.342 42.264C70.1954 40.9413 71.1554 39.96 72.222 39.32C73.2887 38.68 74.59 38.0827 76.126 37.528C77.406 37.1013 78.174 36.7173 78.43 36.376L79.326 35.864C79.7527 35.864 80.0514 36.0347 80.222 36.376C80.3927 36.7173 80.4567 37.1227 80.414 37.592C82.1634 37.5493 83.7207 38.04 85.086 39.064C86.4514 40.0453 87.4967 41.3467 88.222 42.968C88.99 44.5467 89.374 46.168 89.374 47.832C89.374 49.7093 88.8834 51.3307 87.902 52.696C86.9207 54.104 85.6194 55.1707 83.998 55.896C82.3767 56.6213 80.6487 56.984 78.814 56.984C75.6994 56.984 73.118 56.152 71.07 54.488C69.0647 52.8667 68.062 50.5413 68.062 47.512ZM71.39 47.704C71.39 49.8373 72.0514 51.48 73.374 52.632C74.7394 53.784 76.51 54.36 78.686 54.36C80.862 54.36 82.654 53.784 84.062 52.632C85.47 51.5227 86.174 49.9227 86.174 47.832C86.174 46.168 86.0034 44.9093 85.662 44.056C85.3207 43.16 84.8727 42.52 84.318 42.136C83.7634 41.752 82.91 41.368 81.758 40.984C80.1794 40.344 79.1127 39.8747 78.558 39.576C76.766 40.1307 75.3794 40.6853 74.398 41.24C73.4167 41.7947 72.67 42.584 72.158 43.608C71.646 44.5893 71.39 45.9547 71.39 47.704Z" fill="none"/>
<path stroke="#B3614C" d="M147.284 13.336L147.412 26.584V33.24C147.412 39.9813 147.284 45.016 147.028 48.344C146.943 49.1973 146.708 50.328 146.324 51.736C145.983 53.1867 145.556 53.912 145.044 53.912C144.532 53.912 144.191 53.208 144.02 51.8C143.849 50.4347 143.764 49.176 143.764 48.024C143.764 45.848 143.849 42.584 144.02 38.232C144.063 37.1227 144.105 35.7573 144.148 34.136C144.191 32.5147 144.212 30.6373 144.212 28.504L144.276 17.88C144.276 13.0587 144.127 9.176 143.828 6.232C143.7 5.25067 143.401 4.52533 142.932 4.056C142.463 3.544 141.823 3.096 141.012 2.712C140.5 2.456 140.116 2.24267 139.86 2.072C139.647 1.85867 139.54 1.60266 139.54 1.304C139.54 1.00533 139.668 0.770665 139.924 0.599998C140.18 0.386665 140.457 0.279999 140.756 0.279999C142.548 0.279999 144.084 0.919998 145.364 2.2C146.644 3.48 147.284 4.99467 147.284 6.744V13.336ZM104.148 12.824C104.148 12.3973 104.489 12.184 105.172 12.184C105.855 12.184 106.537 12.248 107.22 12.376C107.476 12.4187 107.796 12.4613 108.18 12.504C108.564 12.5467 108.991 12.568 109.46 12.568C114.111 12.568 117.737 12.312 120.34 11.8C120.639 11.7573 121.065 11.672 121.62 11.544C122.175 11.3733 122.644 11.2667 123.028 11.224C123.455 11.224 123.796 11.4373 124.052 11.864C124.308 12.248 124.436 12.6533 124.436 13.08C124.436 14.5307 124.137 16.4933 123.54 18.968C123.668 18.9253 123.881 18.904 124.18 18.904C124.777 18.904 125.353 18.968 125.908 19.096C126.761 19.1813 127.316 19.224 127.572 19.224C128.98 19.224 131.092 19.0107 133.908 18.584V15.128C133.908 12.0133 133.844 9.70933 133.716 8.216C133.631 7.27733 133.353 6.57333 132.884 6.104C132.415 5.592 131.753 5.10133 130.9 4.632C130.388 4.376 130.004 4.16266 129.748 3.992C129.535 3.77866 129.428 3.52266 129.428 3.224C129.428 2.92533 129.577 2.69066 129.876 2.52C130.175 2.34933 130.473 2.264 130.772 2.264C131.455 2.264 132.351 2.56266 133.46 3.16C134.569 3.71466 135.423 4.26933 136.02 4.824C136.532 5.29333 136.852 5.86933 136.98 6.552C137.108 7.23466 137.172 8.088 137.172 9.112V13.848L137.236 32.792C137.236 39.1067 137.087 44.2907 136.788 48.344C136.703 49.24 136.489 50.392 136.148 51.8C135.807 53.208 135.38 53.912 134.868 53.912C134.356 53.912 134.015 53.208 133.844 51.8C133.673 50.4347 133.588 49.176 133.588 48.024C133.588 46.232 133.609 44.6747 133.652 43.352C133.695 41.9867 133.737 40.8347 133.78 39.896C133.823 39.2133 133.865 38.2107 133.908 36.888C133.951 35.5653 133.972 34.4133 133.972 33.432C130.217 34.0293 127.401 34.328 125.524 34.328C124.628 34.328 123.689 34.136 122.708 33.752C121.769 33.3253 121.193 32.7493 120.98 32.024C120.98 31.5547 121.428 31.32 122.324 31.32C122.836 31.32 123.348 31.384 123.86 31.512C124.031 31.5547 124.265 31.5973 124.564 31.64C124.905 31.6827 125.204 31.704 125.46 31.704C127.423 31.704 130.281 31.4053 134.036 30.808L133.972 21.208C131.54 21.6347 129.364 21.848 127.444 21.848C125.823 21.848 124.415 21.336 123.22 20.312C121.983 25.048 119.849 29.72 116.82 34.328C113.833 38.936 110.463 42.3067 106.708 44.44C106.196 44.696 105.769 44.824 105.428 44.824C105.129 44.824 104.916 44.696 104.788 44.44C104.831 43.928 105.151 43.416 105.748 42.904C109.929 39.1493 113.3 34.84 115.86 29.976C118.42 25.0693 120.02 19.8427 120.66 14.296L110.1 15.192C109.545 15.2347 108.777 15.192 107.796 15.064C106.857 14.936 106.004 14.68 105.236 14.296C104.511 13.912 104.148 13.4213 104.148 12.824Z" fill="none"/>
<path stroke="#B3614C" d="M163.594 35.352C158.687 35.352 156.234 34.5413 156.234 32.92C156.234 32.7067 156.319 32.5573 156.49 32.472C156.703 32.344 156.917 32.28 157.13 32.28C157.941 32.28 159.157 32.3653 160.778 32.536C162.314 32.7067 163.509 32.792 164.362 32.792C166.325 32.792 169.183 32.7067 172.938 32.536C172.981 32.024 173.002 31.2347 173.002 30.168C173.002 28.9733 172.981 28.0987 172.938 27.544C170.762 27.3307 168.949 26.6693 167.498 25.56C166.047 24.408 165.322 22.808 165.322 20.76C165.322 18.5413 165.962 16.8133 167.242 15.576C168.565 14.3387 170.421 13.3787 172.81 12.696C173.066 12.6107 173.45 12.3973 173.962 12.056C174.431 11.672 174.815 11.48 175.114 11.48C175.199 11.48 175.327 11.5227 175.498 11.608C175.797 12.12 175.946 12.4827 175.946 12.696C175.946 13.0373 175.861 13.3147 175.69 13.528C177.695 13.5707 179.487 14.232 181.066 15.512C182.645 16.792 183.434 18.4133 183.434 20.376C183.434 22.424 182.773 24.0667 181.45 25.304C180.127 26.4987 178.399 27.224 176.266 27.48C176.309 28.5467 176.287 30.168 176.202 32.344C181.535 32.088 185.482 31.7893 188.042 31.448C188.426 31.4053 188.874 31.2987 189.386 31.128C189.941 30.9573 190.389 30.872 190.73 30.872C191.114 30.872 191.434 31 191.69 31.256C191.989 31.4693 192.138 31.768 192.138 32.152C192.138 32.792 191.775 33.24 191.05 33.496C190.325 33.7093 189.386 33.88 188.234 34.008C179.487 34.904 171.274 35.352 163.594 35.352ZM160.65 8.28C160.65 8.024 160.778 7.85333 161.034 7.768C161.333 7.64 161.631 7.59733 161.93 7.64C164.575 8.06667 166.794 8.28 168.586 8.28H173.322C176.607 8.28 179.359 8.17333 181.578 7.96C181.962 7.91733 182.431 7.81067 182.986 7.64C183.754 7.384 184.351 7.256 184.778 7.256C185.162 7.256 185.482 7.36266 185.738 7.576C185.994 7.78933 186.122 8.088 186.122 8.472C186.122 10.0507 181.301 10.84 171.658 10.84L166.474 10.776C165.322 10.776 164.063 10.584 162.698 10.2C161.333 9.816 160.65 9.176 160.65 8.28ZM166.282 2.264C166.282 2.008 166.346 1.79466 166.474 1.624C166.645 1.41066 166.858 1.304 167.114 1.304C167.413 1.304 168.031 1.47466 168.97 1.816C169.183 1.85866 169.973 2.09333 171.338 2.52C172.746 2.94666 174.047 3.16 175.242 3.16C175.754 3.16 176.181 3.13866 176.522 3.096C176.906 3.05333 177.226 3.01066 177.482 2.968C178.207 2.84 178.933 2.776 179.658 2.776C179.999 2.776 180.298 2.904 180.554 3.16C180.81 3.37333 180.938 3.65067 180.938 3.992C180.938 5.05866 178.933 5.592 174.922 5.592C172.703 5.592 170.698 5.42133 168.906 5.08C167.157 4.696 166.282 3.75733 166.282 2.264ZM168.202 20.76C168.202 22.3387 168.799 23.4907 169.994 24.216C171.189 24.8987 172.639 25.24 174.346 25.24C176.309 25.24 177.823 24.8773 178.89 24.152C179.957 23.384 180.49 22.0827 180.49 20.248C180.49 18.8827 180.17 17.944 179.53 17.432C178.89 16.92 177.973 16.5147 176.778 16.216C176.01 16.0027 175.434 15.8107 175.05 15.64C174.666 15.4267 174.389 15.128 174.218 14.744C173.834 14.9147 173.493 15.064 173.194 15.192C172.895 15.32 172.618 15.4267 172.362 15.512C171.338 15.896 170.549 16.2587 169.994 16.6C169.482 16.8987 169.055 17.3893 168.714 18.072C168.373 18.712 168.202 19.608 168.202 20.76ZM169.29 40.664C169.29 40.4507 169.375 40.3013 169.546 40.216C169.759 40.088 169.973 40.024 170.186 40.024C170.655 40.024 171.402 40.0667 172.426 40.152C173.151 40.28 173.877 40.344 174.602 40.344L179.466 40.408C182.026 40.4933 184.031 40.536 185.482 40.536C189.109 40.536 191.903 40.344 193.866 39.96C194.165 39.9173 194.634 39.8107 195.274 39.64C195.957 39.4693 196.383 39.384 196.554 39.384C197.066 39.384 197.429 39.5973 197.642 40.024C197.898 40.408 198.026 40.856 198.026 41.368C198.026 45.336 197.898 49.048 197.642 52.504C197.386 56.0027 196.746 57.752 195.722 57.752C194.869 57.752 194.442 56.2587 194.442 53.272C194.442 49.6453 194.506 46.04 194.634 42.456L175.306 43.032C174.111 43.0747 172.81 42.9253 171.402 42.584C169.994 42.2 169.29 41.56 169.29 40.664ZM191.242 1.304C191.242 1.00533 191.391 0.770665 191.69 0.599998C191.989 0.386665 192.287 0.279999 192.586 0.279999C194.335 0.279999 195.829 0.941331 197.066 2.264C198.346 3.58666 198.986 5.10133 198.986 6.808L199.05 18.008V21.784C199.05 26.0507 198.965 29.2293 198.794 31.32C198.709 32.216 198.495 33.3893 198.154 34.84C197.813 36.248 197.386 36.952 196.874 36.952C196.021 36.952 195.594 35.2453 195.594 31.832C195.594 30.04 195.637 27.3093 195.722 23.64C195.807 19.9707 195.85 17.1973 195.85 15.32C195.85 11.7787 195.743 8.74933 195.53 6.232C195.445 5.29333 195.146 4.568 194.634 4.056C194.165 3.544 193.525 3.096 192.714 2.712C192.202 2.456 191.818 2.24267 191.562 2.072C191.349 1.85867 191.242 1.60266 191.242 1.304Z" fill="none"/>
</svg>
