<svg width="206" height="58" viewBox="0 0 206 58" fill="none" xmlns="http://www.w3.org/2000/svg">
<path stroke="#005377" d="M26.392 47C25.496 47 25.048 44.248 25.048 38.744V33.368C24.3227 33.368 23.64 33.3893 23 33.432C20.44 33.5173 17.8587 33.56 15.256 33.56C5.61333 33.56 0.791992 32.6427 0.791992 30.808C0.791992 30.5093 0.941326 30.3173 1.23999 30.232C1.53866 30.1467 1.83733 30.1253 2.13599 30.168C5.93333 30.6373 11.0747 30.872 17.56 30.872C20.2907 30.872 22.36 30.8933 23.768 30.936L30.232 31C35.6933 31 40.1733 30.7653 43.672 30.296C44.056 30.2533 44.504 30.1467 45.016 29.976C45.5707 29.8053 46.0187 29.72 46.36 29.72C46.744 29.72 47.064 29.848 47.32 30.104C47.6187 30.3173 47.768 30.616 47.768 31C47.768 31.896 46.3173 32.5147 43.416 32.856C40.5147 33.1973 37.1013 33.368 33.176 33.368L28.44 33.304C28.44 36.76 28.3333 39.9173 28.12 42.776C27.9067 45.592 27.3307 47 26.392 47ZM7.76799 23.768C7.76799 23.5973 7.85333 23.4053 8.02399 23.192C8.19466 22.936 8.34399 22.7653 8.47199 22.68C9.66666 21.912 10.584 21.3573 11.224 21.016C13.6133 19.5227 15.5333 18.2213 16.984 17.112C18.4347 16.0027 19.672 14.6373 20.696 13.016C21.72 11.3947 22.232 9.496 22.232 7.32L22.168 5.912C22.168 4.41866 22.552 3.672 23.32 3.672C24.088 3.672 24.6853 3.94933 25.112 4.504C25.5387 5.05866 25.752 5.72 25.752 6.488C25.752 8.06667 25.4747 9.64533 24.92 11.224C26.2427 13.528 28.3547 15.704 31.256 17.752C34.1573 19.8 36.9093 21.016 39.512 21.4C40.7493 21.5707 41.368 21.912 41.368 22.424C41.368 22.9787 41.0267 23.3627 40.344 23.576C39.6613 23.7467 38.936 23.832 38.168 23.832C36.5467 23.832 34.7973 23.3413 32.92 22.36C31.0427 21.3787 29.272 20.1627 27.608 18.712C25.944 17.2187 24.6 15.768 23.576 14.36C22.808 15.7253 21.5707 17.1973 19.864 18.776C18.1573 20.3547 16.3227 21.6773 14.36 22.744C12.44 23.8107 10.7333 24.344 9.23999 24.344C8.25866 24.344 7.76799 24.152 7.76799 23.768ZM9.81599 39.512C9.81599 38.7013 10.2 38.296 10.968 38.296C12.9307 38.296 14.232 39.0853 14.872 40.664C15.512 42.2427 15.832 44.1627 15.832 46.424L15.768 47.896C15.6827 49.0053 15.64 49.944 15.64 50.712C15.64 52.8453 16.024 53.912 16.792 53.912H22.872C28.504 53.912 33.0907 53.7627 36.632 53.464C37.016 53.4213 37.464 53.336 37.976 53.208C38.5307 53.1227 38.9787 53.08 39.32 53.08C40.216 53.08 40.664 53.4 40.664 54.04C40.664 55.6187 35.3307 56.408 24.664 56.408H21.336C20.696 56.408 20.184 56.4293 19.8 56.472L17.496 56.536C16.0027 56.536 14.7867 56.3227 13.848 55.896C12.9093 55.512 12.44 54.744 12.44 53.592C12.44 52.8667 12.4827 51.7787 12.568 50.328L12.632 47.064C12.632 45.9547 12.568 44.8667 12.44 43.8C12.3547 42.8187 12.1413 42.0933 11.8 41.624C11.4587 41.1547 11.032 40.7493 10.52 40.408C10.0507 40.0667 9.81599 39.768 9.81599 39.512Z" fill="none"/>
<path stroke="#005377" d="M67.993 55.064C67.481 55.064 67.1397 54.36 66.969 52.952C66.7983 51.5867 66.713 50.3067 66.713 49.112L66.649 35.736C62.1263 36.1627 58.713 36.376 56.409 36.376C53.593 36.376 51.929 35.6293 51.417 34.136C51.417 33.7093 51.8437 33.496 52.697 33.496C54.5743 33.624 56.473 33.688 58.393 33.688C65.8597 33.688 73.9663 32.856 82.713 31.192C82.969 31.1493 83.3743 31.0213 83.929 30.808C84.4837 30.5947 84.9317 30.488 85.273 30.488C85.6997 30.488 86.041 30.5947 86.297 30.808C86.5957 31.0213 86.745 31.32 86.745 31.704C86.745 32.472 85.6357 33.112 83.417 33.624C81.1983 34.136 79.513 34.456 78.361 34.584C77.209 34.712 74.4357 34.968 70.041 35.352V40.984C70.041 44.7387 69.9983 47.5547 69.913 49.432C69.8277 50.328 69.6143 51.48 69.273 52.888C68.9317 54.3387 68.505 55.064 67.993 55.064ZM57.753 17.048C57.753 14.9573 58.1157 13.272 58.841 11.992C59.5663 10.6693 60.5263 9.624 61.721 8.856C62.9583 8.088 64.6437 7.256 66.777 6.36C67.1183 6.18933 67.545 5.80533 68.057 5.208C68.6117 4.48266 69.0597 4.12 69.401 4.12C69.8277 4.12 70.1477 4.312 70.361 4.696C70.5743 5.03733 70.681 5.42133 70.681 5.848C70.681 6.57333 70.4463 7.10666 69.977 7.448C73.0063 7.74667 75.353 8.792 77.017 10.584C78.681 12.3333 79.513 14.7227 79.513 17.752C79.513 20.696 78.489 22.9573 76.441 24.536C74.393 26.072 71.833 26.84 68.761 26.84C65.6463 26.84 63.0223 25.9653 60.889 24.216C58.7983 22.4667 57.753 20.0773 57.753 17.048ZM60.953 17.176C60.953 19.3947 61.6783 21.08 63.129 22.232C64.5797 23.384 66.4357 23.96 68.697 23.96C71.257 23.96 73.1557 23.4267 74.393 22.36C75.673 21.2507 76.313 19.4373 76.313 16.92C76.313 14.9147 75.8863 13.5067 75.033 12.696C74.1797 11.8427 72.9637 11.1387 71.385 10.584C70.5743 10.2853 69.9343 10.008 69.465 9.752C68.9957 9.496 68.6543 9.15467 68.441 8.728C66.4783 9.45333 65.0063 10.0933 64.025 10.648C63.0863 11.2027 62.3397 11.992 61.785 13.016C61.2303 13.9973 60.953 15.384 60.953 17.176ZM87.257 1.304C87.257 1.048 87.385 0.813332 87.641 0.599998C87.9397 0.386665 88.217 0.279999 88.473 0.279999C89.2837 0.279999 90.201 0.557332 91.225 1.112C92.249 1.624 93.1023 2.22133 93.785 2.904C94.3397 3.416 94.681 3.992 94.809 4.632C94.937 5.272 95.001 6.12533 95.001 7.192V12.056L95.065 31.64C95.065 39.064 94.8943 45.0373 94.553 49.56C94.4677 50.456 94.2543 51.608 93.913 53.016C93.5717 54.4667 93.145 55.192 92.633 55.192C92.0783 55.192 91.7157 54.488 91.545 53.08C91.3743 51.7147 91.289 50.4347 91.289 49.24C91.289 46.7227 91.3743 42.9467 91.545 37.912C91.7157 32.8773 91.801 29.08 91.801 26.52L91.865 16.344C91.865 12.2053 91.737 8.83466 91.481 6.232C91.353 5.29333 91.0543 4.58933 90.585 4.12C90.1583 3.65066 89.5397 3.20266 88.729 2.776C88.1743 2.47733 87.7903 2.24267 87.577 2.072C87.3637 1.85867 87.257 1.60266 87.257 1.304Z" fill="none"/>
<path stroke="#005377" d="M146.767 6.936C146.767 8.728 146.81 11.416 146.895 15C148.047 15 149.327 14.8507 150.735 14.552C151.076 14.5093 151.567 14.4453 152.207 14.36C152.847 14.2747 153.38 14.232 153.807 14.232C154.532 14.232 155.172 14.36 155.727 14.616C156.282 14.872 156.559 15.32 156.559 15.96C156.559 16.728 155.599 17.1973 153.679 17.368C151.802 17.496 149.54 17.56 146.895 17.56C146.895 26.4773 146.17 30.936 144.719 30.936C144.207 30.936 143.866 30.2533 143.695 28.888C143.524 27.48 143.439 26.1787 143.439 24.984L143.503 15C143.503 11.7573 143.418 8.83466 143.247 6.232C143.204 5.29333 142.948 4.58933 142.479 4.12C142.01 3.65066 141.348 3.20266 140.495 2.776C140.41 2.73333 140.218 2.62666 139.919 2.456C139.62 2.28533 139.386 2.11466 139.215 1.944C139.087 1.73066 139.023 1.51733 139.023 1.304C139.023 0.962663 139.172 0.706664 139.471 0.535999C139.77 0.365332 140.111 0.279999 140.495 0.279999C141.647 0.279999 142.692 0.599998 143.631 1.24C144.612 1.88 145.38 2.712 145.935 3.736C146.49 4.76 146.767 5.82667 146.767 6.936ZM118.223 44.44C118.223 44.1413 118.372 43.9493 118.671 43.864C118.97 43.7787 119.268 43.7573 119.567 43.8C123.066 44.1413 126.308 44.312 129.295 44.312C133.69 44.312 137.828 44.1627 141.711 43.864C141.796 43.0533 141.86 42.1573 141.903 41.176C141.946 40.152 141.967 39.448 141.967 39.064C141.967 37.784 141.988 36.824 142.031 36.184L125.071 36.888C123.962 36.9307 122.682 36.7813 121.231 36.44C119.78 36.056 119.055 35.416 119.055 34.52C119.055 34.0933 119.396 33.88 120.079 33.88C120.762 33.88 121.487 33.944 122.255 34.072C122.511 34.1147 122.81 34.1573 123.151 34.2C123.492 34.2427 123.898 34.264 124.367 34.264L131.855 34.328C135.78 34.328 138.916 34.1147 141.263 33.688C141.562 33.6453 142.031 33.5387 142.671 33.368C143.354 33.1973 143.78 33.112 143.951 33.112C144.42 33.112 144.762 33.3253 144.975 33.752C145.231 34.136 145.359 34.584 145.359 35.096C145.359 36.9307 145.231 39.64 144.975 43.224C145.359 43.224 145.679 43.352 145.935 43.608C146.234 43.8213 146.383 44.12 146.383 44.504C146.383 45.1867 146.063 45.656 145.423 45.912C144.826 46.1253 144.058 46.2533 143.119 46.296C138.34 46.6373 132.004 46.808 124.111 46.808C124.196 47.6187 124.239 48.856 124.239 50.52C124.239 52.184 124.196 53.4213 124.111 54.232C124.154 54.4453 124.388 54.616 124.815 54.744C125.284 54.9147 125.668 55 125.967 55C133.476 55 139.727 54.7653 144.719 54.296C145.103 54.2533 145.551 54.168 146.063 54.04C146.575 53.9547 147.002 53.912 147.343 53.912C148.282 53.912 148.751 54.2533 148.751 54.936C148.751 56.0027 146.468 56.6853 141.903 56.984C137.338 57.3253 132.943 57.496 128.719 57.496L125.839 57.56C124.388 57.56 123.215 57.3467 122.319 56.92C121.423 56.536 120.975 55.768 120.975 54.616V51.032C120.975 49.0693 120.911 47.576 120.783 46.552C120.271 46.3813 119.716 46.0827 119.119 45.656C118.522 45.2293 118.223 44.824 118.223 44.44ZM115.343 17.816C115.343 18.3707 115.322 18.8187 115.279 19.16L115.215 21.144C115.215 23.96 115.962 25.368 117.455 25.368C120.356 25.368 124.324 25.048 129.359 24.408C129.572 22.0187 129.7 19.6507 129.743 17.304L115.343 17.816ZM108.943 7.832C108.943 7.02133 109.327 6.616 110.095 6.616C111.503 6.616 112.548 7.08533 113.231 8.024C113.956 8.92 114.426 9.88 114.639 10.904C114.852 11.928 115.044 13.3787 115.215 15.256C119.268 15.256 124.132 15.1067 129.807 14.808C129.807 12.9733 129.743 11.16 129.615 9.368C129.53 8.344 129.338 7.61866 129.039 7.192C128.74 6.72267 128.335 6.33867 127.823 6.04C127.354 5.69867 127.119 5.35733 127.119 5.016C127.119 4.248 127.503 3.864 128.271 3.864C130.319 3.864 131.62 4.71733 132.175 6.424C132.772 8.13066 133.071 10.2427 133.071 12.76V14.936C133.071 23.7253 132.218 28.12 130.511 28.12C130.17 28.12 129.892 27.992 129.679 27.736C129.508 27.48 129.38 27.1813 129.295 26.84C127.674 27.3093 125.988 27.608 124.239 27.736C122.49 27.8213 120.207 27.864 117.391 27.864C115.642 27.864 114.426 27.7147 113.743 27.416C113.188 27.2027 112.783 26.1787 112.527 24.344C112.314 22.4667 112.143 19.9707 112.015 16.856C111.93 14.3813 111.823 12.8453 111.695 12.248C111.524 11.48 111.311 10.8187 111.055 10.264C110.799 9.66667 110.415 9.21867 109.903 8.92C109.86 8.87733 109.69 8.77067 109.391 8.6C109.092 8.42933 108.943 8.17333 108.943 7.832Z" fill="none"/>
<path stroke="#005377" d="M164.101 45.656C163.12 45.656 162.096 45.464 161.029 45.08C159.962 44.696 159.28 44.1413 158.981 43.416L159.045 42.776H159.109C159.621 42.5627 160.005 42.4773 160.261 42.52C163.418 42.9467 167.088 43.16 171.269 43.16H174.661V31.512C174.405 31.512 174 31.5333 173.445 31.576C172.933 31.6187 172.293 31.64 171.525 31.64C167.216 31.64 165.061 30.8507 165.061 29.272C165.061 29.0587 165.168 28.9093 165.381 28.824C165.594 28.696 165.808 28.632 166.021 28.632C166.533 28.632 166.96 28.6533 167.301 28.696C167.685 28.7387 168.005 28.7813 168.261 28.824C168.986 28.952 169.69 29.016 170.373 29.016H173.637C173.594 26.456 173.381 23.384 172.997 19.8C172.869 18.904 172.656 18.2427 172.357 17.816C172.058 17.3893 171.674 17.0267 171.205 16.728C170.906 16.5147 170.693 16.344 170.565 16.216C170.437 16.0453 170.373 15.832 170.373 15.576C170.373 14.8507 170.8 14.488 171.653 14.488C173.786 14.488 175.173 15.6827 175.813 18.072C176.453 20.4613 176.773 23.384 176.773 26.84V29.016C179.418 29.016 183.344 28.9733 188.549 28.888C189.189 24.7067 189.509 21.3573 189.509 18.84C189.509 17.9013 189.381 17.2187 189.125 16.792C188.912 16.3227 188.592 15.896 188.165 15.512C187.994 15.384 187.845 15.2347 187.717 15.064C187.589 14.8507 187.525 14.616 187.525 14.36L187.653 13.848C187.909 13.5067 188.208 13.336 188.549 13.336C189.744 13.336 190.725 13.8693 191.493 14.936C192.261 16.0027 192.645 17.1333 192.645 18.328C192.645 21.2293 192.346 24.7067 191.749 28.76C192.474 28.7173 193.157 28.6533 193.797 28.568C194.437 28.4827 194.992 28.4187 195.461 28.376C197.168 28.12 198.277 27.992 198.789 27.992C199.173 27.992 199.493 28.12 199.749 28.376C200.048 28.5893 200.197 28.888 200.197 29.272C200.197 30.6373 198.149 31.32 194.053 31.32L191.685 31.256V34.2L191.557 40.088V43.032C192.709 43.032 193.584 43.0107 194.181 42.968C197.125 42.968 199.322 42.904 200.773 42.776C201.072 42.776 201.648 42.648 202.501 42.392C202.672 42.3493 202.928 42.2853 203.269 42.2C203.61 42.1147 203.909 42.072 204.165 42.072C204.25 42.072 204.378 42.0933 204.549 42.136C204.762 42.1787 204.912 42.1787 204.997 42.136C205.594 42.4347 205.893 42.776 205.893 43.16C205.893 43.672 205.765 44.0773 205.509 44.376C205.466 44.376 205.381 44.44 205.253 44.568C204.4 45.0373 202.245 45.336 198.789 45.464C195.333 45.592 192.112 45.656 189.125 45.656H164.101ZM165.125 9.88C165.125 9.45333 165.488 9.24 166.213 9.24C166.938 9.24 167.642 9.304 168.325 9.432C168.581 9.47467 168.88 9.51733 169.221 9.56C169.562 9.60266 169.968 9.624 170.437 9.624L180.229 9.688C185.69 9.688 190.256 9.47467 193.925 9.048C194.309 9.00533 194.757 8.89866 195.269 8.728C195.824 8.55733 196.272 8.472 196.613 8.472C196.997 8.472 197.317 8.6 197.573 8.856C197.872 9.06933 198.021 9.368 198.021 9.752C198.021 10.4347 197.744 10.8827 197.189 11.096C196.634 11.2667 195.824 11.416 194.757 11.544C189.125 12.0133 181.253 12.248 171.141 12.248C169.861 12.248 168.538 12.0773 167.173 11.736C165.808 11.3947 165.125 10.776 165.125 9.88ZM183.109 43.16L186.501 43.096H188.229V31.32L178.117 31.448V34.392L177.989 40.216V43.16H183.109Z" fill="none"/>
</svg>
