<svg width="146" height="57" viewBox="0 0 146 57" fill="none" xmlns="http://www.w3.org/2000/svg">
<path stroke="#005377" d="M36.008 55.192C35.4533 55.192 35.0906 54.488 34.92 53.08C34.7493 51.7147 34.664 50.4347 34.664 49.24C34.664 47.3627 34.7493 44.504 34.92 40.664C35.0906 37.4213 35.176 34.968 35.176 33.304C32.7013 33.688 30.76 33.9653 29.352 34.136C27.944 34.3067 26.5146 34.392 25.064 34.392C23.8266 34.392 22.6533 34.0507 21.544 33.368C20.4346 34.648 19.048 35.6293 17.384 36.312C15.7626 36.952 14.0346 37.272 12.2 37.272C9.98131 37.272 7.93331 36.824 6.05598 35.928C4.22131 34.9893 2.74931 33.688 1.63998 32.024C0.573311 30.3173 0.039978 28.3547 0.039978 26.136C0.039978 22.808 0.893311 20.0773 2.59998 17.944C4.34931 15.768 6.82398 14.0613 10.024 12.824C10.3653 12.696 10.8133 12.2693 11.368 11.544C12.008 10.7333 12.5413 10.328 12.968 10.328C13.3946 10.328 13.7146 10.52 13.928 10.904C14.184 11.288 14.312 11.7147 14.312 12.184C14.312 12.9947 14.12 13.528 13.736 13.784C14.9733 13.912 16.2746 14.3387 17.64 15.064C19.0053 15.7467 20.1786 16.5787 21.16 17.56C21.5866 17.3467 21.992 17.24 22.376 17.24C22.7173 17.24 23.016 17.2613 23.272 17.304C23.528 17.3467 23.7413 17.3893 23.912 17.432C24.424 17.56 24.9146 17.624 25.384 17.624C27.2186 17.624 29.928 17.368 33.512 16.856C33.896 16.7707 34.4293 16.6853 35.112 16.6C35.112 15.2773 35.0906 14.296 35.048 13.656C35.048 10.328 34.984 7.85333 34.856 6.232C34.8133 5.29333 34.5573 4.58933 34.088 4.12C33.6186 3.65066 32.9573 3.18133 32.104 2.712C31.592 2.456 31.208 2.24267 30.952 2.072C30.7386 1.85867 30.632 1.60266 30.632 1.304C30.632 1.00533 30.7813 0.770665 31.08 0.599998C31.3786 0.386665 31.6773 0.279999 31.976 0.279999C32.7013 0.279999 33.576 0.557332 34.6 1.112C35.624 1.66666 36.4773 2.264 37.16 2.904C37.7146 3.37333 38.056 3.94933 38.184 4.632C38.312 5.272 38.376 6.12533 38.376 7.192V12.056L38.44 31.64C38.44 39.064 38.2693 45.0373 37.928 49.56C37.8426 50.456 37.6293 51.608 37.288 53.016C36.9466 54.4667 36.52 55.192 36.008 55.192ZM3.17598 26.264C3.17598 28.696 4.02931 30.6587 5.73598 32.152C7.48531 33.6027 9.59731 34.328 12.072 34.328C14.9306 34.328 17.128 33.56 18.664 32.024C20.2 30.4453 20.968 28.248 20.968 25.432C20.968 23.5973 20.6693 22.1467 20.072 21.08C19.5173 19.9707 18.8346 19.16 18.024 18.648C17.2133 18.136 16.1893 17.624 14.952 17.112C14.0133 16.728 13.3306 16.408 12.904 16.152C12.4773 15.896 12.136 15.576 11.88 15.192C8.93598 16.1307 6.73864 17.4533 5.28798 19.16C3.87998 20.8667 3.17598 23.2347 3.17598 26.264ZM22.632 19.544C23.6133 21.336 24.104 23.5547 24.104 26.2C24.104 28.0773 23.6773 29.8693 22.824 31.576C23.0373 31.576 23.336 31.6187 23.72 31.704C24.1466 31.7467 24.5306 31.768 24.872 31.768C26.664 31.768 29.352 31.512 32.936 31L35.176 30.68V19.224L33.64 19.416C30.3973 19.9707 27.7093 20.248 25.576 20.248C24.3386 20.248 23.3573 20.0133 22.632 19.544Z" fill="none"/>
<path stroke="#005377" d="M91.102 36.44C90.59 36.44 90.2486 35.736 90.078 34.328C89.9073 32.92 89.822 31.64 89.822 30.488V27.864L90.014 22.552V19.928C88.222 20.184 85.534 20.3547 81.95 20.44C81.95 23.7253 81.8433 26.6693 81.63 29.272C81.4593 31.832 80.926 33.112 80.03 33.112C79.4753 33.112 79.1126 32.4293 78.942 31.064C78.7713 29.656 78.686 28.3547 78.686 27.16L78.75 18.328C78.75 14.2747 78.622 10.9467 78.366 8.344C78.2806 7.40533 78.0033 6.70133 77.534 6.232C77.0646 5.72 76.4033 5.22933 75.55 4.76C75.038 4.46133 74.6753 4.22666 74.462 4.056C74.2486 3.88533 74.142 3.65067 74.142 3.352C74.142 3.05333 74.2913 2.81867 74.59 2.648C74.8886 2.47733 75.2086 2.392 75.55 2.392C77.214 2.392 78.6646 3.032 79.902 4.312C81.182 5.54933 81.822 6.97867 81.822 8.6V10.904L81.95 15.512V17.816C85.1073 17.7307 87.7953 17.56 90.014 17.304V14.168C90.014 10.6267 89.9286 7.98133 89.758 6.232C89.6726 5.29333 89.3953 4.58933 88.926 4.12C88.4566 3.65066 87.7953 3.18133 86.942 2.712C86.43 2.456 86.046 2.24267 85.79 2.072C85.5766 1.85867 85.47 1.60266 85.47 1.304C85.47 0.962663 85.6193 0.706664 85.918 0.535999C86.2593 0.365332 86.6006 0.279999 86.942 0.279999C88.6486 0.279999 90.1206 0.962666 91.358 2.328C92.5953 3.69333 93.214 5.208 93.214 6.872L93.278 18.776V22.552C93.278 31.8107 92.5527 36.44 91.102 36.44ZM49.886 11.8C49.886 11.6293 49.9713 11.48 50.142 11.352C50.3126 11.224 50.5046 11.16 50.718 11.16C51.742 11.16 52.8513 11.2667 54.046 11.48C54.3446 11.5227 54.8566 11.5867 55.582 11.672C56.3073 11.7573 56.9686 11.8 57.566 11.8H60.51C64.094 11.8 67.102 11.6933 69.534 11.48C69.7473 11.4373 70.2166 11.3307 70.942 11.16C71.07 11.1173 71.3046 11.0533 71.646 10.968C72.03 10.8827 72.3926 10.84 72.734 10.84C73.1606 10.84 73.502 10.9467 73.758 11.16C74.014 11.3733 74.142 11.672 74.142 12.056C74.142 12.952 72.7553 13.5707 69.982 13.912C67.2513 14.2107 64.03 14.36 60.318 14.36L55.774 14.296C54.5366 14.296 53.2353 14.104 51.87 13.72C50.5473 13.336 49.886 12.696 49.886 11.8ZM54.11 26.136C54.11 23.7893 54.75 21.9333 56.03 20.568C57.31 19.2027 59.1446 18.1573 61.534 17.432C61.79 17.3467 62.1953 17.112 62.75 16.728C63.3046 16.344 63.6673 16.152 63.838 16.152C63.9233 16.152 64.094 16.1947 64.35 16.28L64.798 17.624C66.8886 17.9653 68.638 18.84 70.046 20.248C71.454 21.656 72.158 23.384 72.158 25.432C72.158 28.248 71.3473 30.424 69.726 31.96C68.1046 33.4533 65.886 34.2 63.07 34.2C60.51 34.2 58.3766 33.496 56.67 32.088C54.9633 30.6373 54.11 28.6533 54.11 26.136ZM55.582 5.272C55.582 5.016 55.646 4.80266 55.774 4.632C55.902 4.41866 56.094 4.312 56.35 4.312C56.734 4.312 57.246 4.41866 57.886 4.632C58.526 4.84533 58.9526 4.99467 59.166 5.08C61.1713 5.80533 62.6646 6.168 63.646 6.168C64.0726 6.168 64.7553 6.08267 65.694 5.912C65.9073 5.86933 66.1633 5.82667 66.462 5.784C66.8033 5.74133 67.1873 5.72 67.614 5.72C67.998 5.72 68.318 5.848 68.574 6.104C68.83 6.31733 68.958 6.616 68.958 7C68.958 7.64 68.3393 8.06667 67.102 8.28C65.9073 8.49333 64.6913 8.6 63.454 8.6C58.206 8.6 55.582 7.49067 55.582 5.272ZM57.246 26.136C57.246 27.7147 57.8006 29.016 58.91 30.04C60.062 31.0213 61.4273 31.512 63.006 31.512C64.8833 31.512 66.334 31.0213 67.358 30.04C68.4246 29.0587 68.958 27.6293 68.958 25.752C68.958 24.2587 68.6806 23.2133 68.126 22.616C67.5713 21.976 66.7393 21.4213 65.63 20.952C65.5446 20.9093 65.2246 20.7813 64.67 20.568C64.158 20.312 63.7313 19.9707 63.39 19.544L62.11 20.12C60.9153 20.632 59.998 21.08 59.358 21.464C58.718 21.848 58.206 22.424 57.822 23.192C57.438 23.9173 57.246 24.8987 57.246 26.136ZM68.062 47.512C68.062 45.336 68.4886 43.5867 69.342 42.264C70.1953 40.9413 71.1553 39.96 72.222 39.32C73.2886 38.68 74.59 38.0827 76.126 37.528C77.406 37.1013 78.174 36.7173 78.43 36.376L79.326 35.864C79.7526 35.864 80.0513 36.0347 80.222 36.376C80.3926 36.7173 80.4566 37.1227 80.414 37.592C82.1633 37.5493 83.7206 38.04 85.086 39.064C86.4513 40.0453 87.4966 41.3467 88.222 42.968C88.99 44.5467 89.374 46.168 89.374 47.832C89.374 49.7093 88.8833 51.3307 87.902 52.696C86.9206 54.104 85.6193 55.1707 83.998 55.896C82.3766 56.6213 80.6486 56.984 78.814 56.984C75.6993 56.984 73.118 56.152 71.07 54.488C69.0646 52.8667 68.062 50.5413 68.062 47.512ZM71.39 47.704C71.39 49.8373 72.0513 51.48 73.374 52.632C74.7393 53.784 76.51 54.36 78.686 54.36C80.862 54.36 82.654 53.784 84.062 52.632C85.47 51.5227 86.174 49.9227 86.174 47.832C86.174 46.168 86.0033 44.9093 85.662 44.056C85.3206 43.16 84.8726 42.52 84.318 42.136C83.7633 41.752 82.91 41.368 81.758 40.984C80.1793 40.344 79.1126 39.8747 78.558 39.576C76.766 40.1307 75.3793 40.6853 74.398 41.24C73.4166 41.7947 72.67 42.584 72.158 43.608C71.646 44.5893 71.39 45.9547 71.39 47.704Z" fill="none"/>
<path stroke="#005377" d="M139.348 0.279999C140.159 0.279999 141.076 0.557332 142.1 1.112C143.124 1.624 143.977 2.22133 144.66 2.904C145.215 3.416 145.556 3.992 145.684 4.632C145.812 5.272 145.876 6.12533 145.876 7.192V12.056L145.94 31.64C145.94 39.064 145.769 45.0373 145.428 49.56C145.343 50.456 145.129 51.608 144.788 53.016C144.447 54.4667 144.02 55.192 143.508 55.192C142.953 55.192 142.591 54.488 142.42 53.08C142.249 51.7147 142.164 50.4347 142.164 49.24C142.164 46.7227 142.249 42.9467 142.42 37.912C142.591 32.8773 142.676 29.08 142.676 26.52L142.74 16.344C142.74 12.2053 142.612 8.83466 142.356 6.232C142.228 5.29333 141.929 4.58933 141.46 4.12C141.033 3.65066 140.415 3.20266 139.604 2.776C139.049 2.47733 138.665 2.24267 138.452 2.072C138.239 1.85867 138.132 1.60266 138.132 1.304C138.132 1.048 138.26 0.813332 138.516 0.599998C138.815 0.386665 139.092 0.279999 139.348 0.279999ZM104.98 12.248C104.98 11.8213 105.321 11.608 106.004 11.608C106.687 11.608 107.412 11.672 108.18 11.8C108.436 11.8427 108.735 11.8853 109.076 11.928C109.417 11.9707 109.823 11.992 110.292 11.992C115.796 11.992 120.404 11.6507 124.116 10.968C124.415 10.9253 124.841 10.84 125.396 10.712C125.951 10.5413 126.42 10.4347 126.804 10.392C127.785 10.392 128.276 11.1813 128.276 12.76C128.276 16.3867 127.231 20.184 125.14 24.152C123.049 28.0773 120.383 31.6827 117.14 34.968C113.897 38.2533 110.633 40.792 107.348 42.584C106.921 42.84 106.516 42.968 106.132 42.968C106.004 42.968 105.876 42.9253 105.748 42.84C105.62 42.7547 105.535 42.648 105.492 42.52C105.535 42.136 106.58 41.0267 108.628 39.192C111.316 36.76 113.684 34.4133 115.732 32.152C117.823 29.848 119.743 27.0747 121.492 23.832C123.284 20.5893 124.287 17.1333 124.5 13.464L110.996 14.616C110.399 14.6587 109.609 14.616 108.628 14.488C107.689 14.36 106.836 14.1253 106.068 13.784C105.343 13.4 104.98 12.888 104.98 12.248Z" fill="none"/>

</svg>
