<svg width="205" height="57" viewBox="0 0 205 57" fill="none" xmlns="http://www.w3.org/2000/svg">
<path stroke="#005377" d="M7.11203 42.072C6.47203 42.072 5.85336 41.9653 5.25603 41.752C4.65869 41.5387 4.18936 41.2187 3.84803 40.792H3.72003C3.97603 38.1893 4.10403 34.2853 4.10403 29.08C4.10403 25.8373 4.04003 23.4267 3.91203 21.848C3.82669 20.824 3.61336 20.0773 3.27203 19.608C2.97336 19.1387 2.56803 18.7547 2.05603 18.456C1.54403 18.1147 1.28803 17.7733 1.28803 17.432C1.28803 16.664 1.67203 16.28 2.44003 16.28C3.97603 16.28 5.06403 16.7707 5.70403 17.752C6.38669 18.7333 6.77069 19.6933 6.85603 20.632C6.98403 21.5707 7.09069 23.2133 7.17603 25.56C8.02936 25.5173 10.0347 25.304 13.192 24.92C15.6667 24.536 17.3734 24.344 18.312 24.344C19.208 24.344 19.656 24.8133 19.656 25.752C19.656 26.52 18.4827 27.0747 16.136 27.416C13.7894 27.7573 11.7627 27.9707 10.056 28.056C8.39203 28.1413 7.43203 28.184 7.17603 28.184C7.21869 30.6587 7.11203 34.4133 6.85603 39.448C12.0187 38.68 16.8614 37.3147 21.384 35.352C21.6827 35.224 22.4507 34.8613 23.688 34.264C24.968 33.6667 25.7787 33.368 26.12 33.368C26.248 33.368 26.3974 33.4107 26.568 33.496C26.7387 33.5813 26.824 33.688 26.824 33.816C26.824 34.968 25.4587 36.184 22.728 37.464C20.04 38.7013 17.0107 39.7893 13.64 40.728C10.312 41.624 8.13603 42.072 7.11203 42.072ZM0.840027 12.952C0.840027 12.7387 0.92536 12.5893 1.09603 12.504C1.26669 12.376 1.45869 12.312 1.67203 12.312C2.39736 12.312 3.01603 12.3333 3.52803 12.376C4.04003 12.4187 4.48803 12.4613 4.87203 12.504C6.23736 12.6747 7.28269 12.76 8.00803 12.76C9.03203 12.76 10.2054 12.696 11.528 12.568C12.8934 12.3973 14.1947 12.2267 15.432 12.056C17.9494 11.672 19.848 11.48 21.128 11.48C21.512 11.48 21.832 11.608 22.088 11.864C22.344 12.0773 22.472 12.376 22.472 12.76C22.472 13.8693 20.7227 14.5733 17.224 14.872C13.7254 15.1707 10.248 15.32 6.79203 15.32C5.51203 15.32 4.18936 15.1493 2.82403 14.808C1.50136 14.4667 0.840027 13.848 0.840027 12.952ZM20.296 24.344C20.296 23.8747 20.744 23.64 21.64 23.64C22.1947 23.64 22.728 23.704 23.24 23.832C23.4107 23.8747 23.624 23.9173 23.88 23.96C24.136 24.0027 24.456 24.024 24.84 24.024C25.6507 24.024 26.5254 23.9387 27.464 23.768C28.4454 23.5547 29.128 23.4267 29.512 23.384C29.512 21.72 29.4907 20.4613 29.448 19.608C29.448 14.488 29.3627 10.6907 29.192 8.216C29.1494 7.27733 28.872 6.57333 28.36 6.104C27.8907 5.592 27.2507 5.12267 26.44 4.696C25.8854 4.39733 25.5014 4.16266 25.288 3.992C25.0747 3.77866 24.968 3.52266 24.968 3.224C24.968 2.92533 25.096 2.69066 25.352 2.52C25.6507 2.34933 25.9707 2.264 26.312 2.264C28.0614 2.264 29.5547 2.92533 30.792 4.248C32.072 5.57066 32.712 7.08533 32.712 8.792V14.488L32.84 25.944V31.64C32.84 38.8933 32.6694 44.7387 32.328 49.176C32.2854 49.944 32.072 50.9253 31.688 52.12C31.304 53.3147 30.856 53.912 30.344 53.912C29.7894 53.912 29.4267 53.336 29.256 52.184C29.128 51.0747 29.064 49.9653 29.064 48.856C29.064 46.3387 29.1494 42.5627 29.32 37.528C29.4907 32.408 29.576 28.5893 29.576 26.072C29.3627 26.1147 28.7654 26.2213 27.784 26.392C26.8454 26.5627 25.9494 26.648 25.096 26.648C24.1147 26.648 23.1334 26.456 22.152 26.072C21.1707 25.688 20.552 25.112 20.296 24.344ZM35.72 1.304C35.72 1.00533 35.848 0.770665 36.104 0.599998C36.36 0.386665 36.6374 0.279999 36.936 0.279999C38.728 0.279999 40.264 0.919998 41.544 2.2C42.8667 3.48 43.528 4.99467 43.528 6.744C43.528 12.5467 43.5494 16.8987 43.592 19.8L43.656 32.92C43.656 39.2347 43.5067 44.376 43.208 48.344C43.1227 49.1973 42.888 50.328 42.504 51.736C42.1627 53.1867 41.736 53.912 41.224 53.912C40.712 53.912 40.3707 53.208 40.2 51.8C40.0294 50.4347 39.944 49.176 39.944 48.024C39.944 45.848 40.0294 42.584 40.2 38.232C40.2427 37.1227 40.2854 35.7573 40.328 34.136C40.3707 32.5147 40.392 30.6373 40.392 28.504L40.456 17.88C40.456 13.0587 40.3067 9.176 40.008 6.232C39.88 5.25067 39.5814 4.52533 39.112 4.056C38.6427 3.544 38.0027 3.096 37.192 2.712C36.68 2.456 36.296 2.24267 36.04 2.072C35.8267 1.85867 35.72 1.60266 35.72 1.304Z" fill="none"/>
<path stroke="#005377" d="M91.902 55.192C91.3473 55.192 90.9847 54.488 90.814 53.08C90.6433 51.7147 90.558 50.4347 90.558 49.24C90.558 46.7227 90.6433 42.9467 90.814 37.912C90.9847 32.8773 91.07 29.08 91.07 26.52V19.16C91.07 14.1253 90.9633 9.816 90.75 6.232C90.7073 5.29333 90.4513 4.58933 89.982 4.12C89.5127 3.65066 88.8513 3.20266 87.998 2.776C87.9127 2.73333 87.7207 2.62666 87.422 2.456C87.1233 2.28533 86.8887 2.11466 86.718 1.944C86.59 1.73066 86.526 1.51733 86.526 1.304C86.526 0.962663 86.654 0.706664 86.91 0.535999C87.2087 0.365332 87.5287 0.279999 87.87 0.279999C89.6193 0.279999 91.1127 0.941331 92.35 2.264C93.63 3.58666 94.27 5.12266 94.27 6.872V25.176H95.614C96.382 25.176 97.4913 25.048 98.942 24.792C100.393 24.536 101.459 24.408 102.142 24.408C102.782 24.408 103.315 24.5787 103.742 24.92C104.211 25.2187 104.446 25.688 104.446 26.328C104.446 27.2667 101.779 27.736 96.446 27.736L94.27 27.672V33.368C94.27 39.9813 94.1207 45.3787 93.822 49.56C93.7367 50.4133 93.502 51.5653 93.118 53.016C92.7767 54.4667 92.3713 55.192 91.902 55.192ZM56.318 13.4C56.318 12.6747 56.7447 12.312 57.598 12.312C59.7313 12.312 61.1393 13.656 61.822 16.344C62.5047 19.032 62.846 22.552 62.846 26.904V31.768C62.846 33.4747 62.8887 34.6053 62.974 35.16C63.0593 35.8 63.678 36.12 64.83 36.12C69.6087 36.12 74.1313 35.7787 78.398 35.096C78.6967 31.9813 78.8887 27.288 78.974 21.016C78.974 19.352 79.0167 16.8133 79.102 13.4L67.454 14.104C66.302 14.1467 65.0007 13.9973 63.55 13.656C62.142 13.272 61.438 12.632 61.438 11.736C61.438 11.48 61.5873 11.3093 61.886 11.224C62.1847 11.096 62.462 11.0533 62.718 11.096C63.102 11.1387 63.7207 11.224 64.574 11.352C65.4273 11.4373 66.1527 11.48 66.75 11.48C69.6087 11.48 71.8913 11.4587 73.598 11.416C75.3047 11.3733 76.9047 11.2027 78.398 10.904C78.6967 10.8613 79.1233 10.776 79.678 10.648C80.2327 10.4773 80.702 10.3707 81.086 10.328C81.5127 10.328 81.854 10.52 82.11 10.904C82.366 11.288 82.494 11.6933 82.494 12.12C82.494 24.8347 82.174 32.7067 81.534 35.736C81.1073 37.6133 80.3607 38.5093 79.294 38.424L78.462 37.592C78.1207 37.5493 76.0727 37.6987 72.318 38.04C67.9233 38.424 65.406 38.616 64.766 38.616C63.0167 38.616 61.8007 38.4667 61.118 38.168C60.5207 37.9547 60.1153 36.8027 59.902 34.712C59.7313 32.5787 59.582 29.3573 59.454 25.048C59.3687 21.1227 59.2407 18.7547 59.07 17.944C58.942 17.176 58.7287 16.536 58.43 16.024C58.174 15.4693 57.79 15 57.278 14.616C57.2353 14.5733 57.1073 14.488 56.894 14.36C56.7233 14.232 56.574 14.104 56.446 13.976C56.3607 13.8053 56.318 13.6133 56.318 13.4Z" fill="none"/>
<path stroke="#005377" d="M147.508 55.192C146.953 55.192 146.591 54.488 146.42 53.08C146.249 51.7147 146.164 50.4347 146.164 49.24C146.164 47.3627 146.249 44.504 146.42 40.664C146.591 37.4213 146.676 34.968 146.676 33.304C144.201 33.688 142.26 33.9653 140.852 34.136C139.444 34.3067 138.015 34.392 136.564 34.392C135.327 34.392 134.153 34.0507 133.044 33.368C131.935 34.648 130.548 35.6293 128.884 36.312C127.263 36.952 125.535 37.272 123.7 37.272C121.481 37.272 119.433 36.824 117.556 35.928C115.721 34.9893 114.249 33.688 113.14 32.024C112.073 30.3173 111.54 28.3547 111.54 26.136C111.54 22.808 112.393 20.0773 114.1 17.944C115.849 15.768 118.324 14.0613 121.524 12.824C121.865 12.696 122.313 12.2693 122.868 11.544C123.508 10.7333 124.041 10.328 124.468 10.328C124.895 10.328 125.215 10.52 125.428 10.904C125.684 11.288 125.812 11.7147 125.812 12.184C125.812 12.9947 125.62 13.528 125.236 13.784C126.473 13.912 127.775 14.3387 129.14 15.064C130.505 15.7467 131.679 16.5787 132.66 17.56C133.087 17.3467 133.492 17.24 133.876 17.24C134.217 17.24 134.516 17.2613 134.772 17.304C135.028 17.3467 135.241 17.3893 135.412 17.432C135.924 17.56 136.415 17.624 136.884 17.624C138.719 17.624 141.428 17.368 145.012 16.856C145.396 16.7707 145.929 16.6853 146.612 16.6C146.612 15.2773 146.591 14.296 146.548 13.656C146.548 10.328 146.484 7.85333 146.356 6.232C146.313 5.29333 146.057 4.58933 145.588 4.12C145.119 3.65066 144.457 3.18133 143.604 2.712C143.092 2.456 142.708 2.24267 142.452 2.072C142.239 1.85867 142.132 1.60266 142.132 1.304C142.132 1.00533 142.281 0.770665 142.58 0.599998C142.879 0.386665 143.177 0.279999 143.476 0.279999C144.201 0.279999 145.076 0.557332 146.1 1.112C147.124 1.66666 147.977 2.264 148.66 2.904C149.215 3.37333 149.556 3.94933 149.684 4.632C149.812 5.272 149.876 6.12533 149.876 7.192V12.056L149.94 31.64C149.94 39.064 149.769 45.0373 149.428 49.56C149.343 50.456 149.129 51.608 148.788 53.016C148.447 54.4667 148.02 55.192 147.508 55.192ZM114.676 26.264C114.676 28.696 115.529 30.6587 117.236 32.152C118.985 33.6027 121.097 34.328 123.572 34.328C126.431 34.328 128.628 33.56 130.164 32.024C131.7 30.4453 132.468 28.248 132.468 25.432C132.468 23.5973 132.169 22.1467 131.572 21.08C131.017 19.9707 130.335 19.16 129.524 18.648C128.713 18.136 127.689 17.624 126.452 17.112C125.513 16.728 124.831 16.408 124.404 16.152C123.977 15.896 123.636 15.576 123.38 15.192C120.436 16.1307 118.239 17.4533 116.788 19.16C115.38 20.8667 114.676 23.2347 114.676 26.264ZM134.132 19.544C135.113 21.336 135.604 23.5547 135.604 26.2C135.604 28.0773 135.177 29.8693 134.324 31.576C134.537 31.576 134.836 31.6187 135.22 31.704C135.647 31.7467 136.031 31.768 136.372 31.768C138.164 31.768 140.852 31.512 144.436 31L146.676 30.68V19.224L145.14 19.416C141.897 19.9707 139.209 20.248 137.076 20.248C135.839 20.248 134.857 20.0133 134.132 19.544Z" fill="none"/>
<path stroke="#005377" d="M202.602 36.44C202.09 36.44 201.749 35.736 201.578 34.328C201.407 32.92 201.322 31.64 201.322 30.488V27.864L201.514 22.552V19.928C199.722 20.184 197.034 20.3547 193.45 20.44C193.45 23.7253 193.343 26.6693 193.13 29.272C192.959 31.832 192.426 33.112 191.53 33.112C190.975 33.112 190.613 32.4293 190.442 31.064C190.271 29.656 190.186 28.3547 190.186 27.16L190.25 18.328C190.25 14.2747 190.122 10.9467 189.866 8.344C189.781 7.40533 189.503 6.70133 189.034 6.232C188.565 5.72 187.903 5.22933 187.05 4.76C186.538 4.46133 186.175 4.22666 185.962 4.056C185.749 3.88533 185.642 3.65067 185.642 3.352C185.642 3.05333 185.791 2.81867 186.09 2.648C186.389 2.47733 186.709 2.392 187.05 2.392C188.714 2.392 190.165 3.032 191.402 4.312C192.682 5.54933 193.322 6.97867 193.322 8.6V10.904L193.45 15.512V17.816C196.607 17.7307 199.295 17.56 201.514 17.304V14.168C201.514 10.6267 201.429 7.98133 201.258 6.232C201.173 5.29333 200.895 4.58933 200.426 4.12C199.957 3.65066 199.295 3.18133 198.442 2.712C197.93 2.456 197.546 2.24267 197.29 2.072C197.077 1.85867 196.97 1.60266 196.97 1.304C196.97 0.962663 197.119 0.706664 197.418 0.535999C197.759 0.365332 198.101 0.279999 198.442 0.279999C200.149 0.279999 201.621 0.962666 202.858 2.328C204.095 3.69333 204.714 5.208 204.714 6.872L204.778 18.776V22.552C204.778 31.8107 204.053 36.44 202.602 36.44ZM161.386 11.8C161.386 11.6293 161.471 11.48 161.642 11.352C161.813 11.224 162.005 11.16 162.218 11.16C163.242 11.16 164.351 11.2667 165.546 11.48C165.845 11.5227 166.357 11.5867 167.082 11.672C167.807 11.7573 168.469 11.8 169.066 11.8H172.01C175.594 11.8 178.602 11.6933 181.034 11.48C181.247 11.4373 181.717 11.3307 182.442 11.16C182.57 11.1173 182.805 11.0533 183.146 10.968C183.53 10.8827 183.893 10.84 184.234 10.84C184.661 10.84 185.002 10.9467 185.258 11.16C185.514 11.3733 185.642 11.672 185.642 12.056C185.642 12.952 184.255 13.5707 181.482 13.912C178.751 14.2107 175.53 14.36 171.818 14.36L167.274 14.296C166.037 14.296 164.735 14.104 163.37 13.72C162.047 13.336 161.386 12.696 161.386 11.8ZM165.61 26.136C165.61 23.7893 166.25 21.9333 167.53 20.568C168.81 19.2027 170.645 18.1573 173.034 17.432C173.29 17.3467 173.695 17.112 174.25 16.728C174.805 16.344 175.167 16.152 175.338 16.152C175.423 16.152 175.594 16.1947 175.85 16.28L176.298 17.624C178.389 17.9653 180.138 18.84 181.546 20.248C182.954 21.656 183.658 23.384 183.658 25.432C183.658 28.248 182.847 30.424 181.226 31.96C179.605 33.4533 177.386 34.2 174.57 34.2C172.01 34.2 169.877 33.496 168.17 32.088C166.463 30.6373 165.61 28.6533 165.61 26.136ZM167.082 5.272C167.082 5.016 167.146 4.80266 167.274 4.632C167.402 4.41866 167.594 4.312 167.85 4.312C168.234 4.312 168.746 4.41866 169.386 4.632C170.026 4.84533 170.453 4.99467 170.666 5.08C172.671 5.80533 174.165 6.168 175.146 6.168C175.573 6.168 176.255 6.08267 177.194 5.912C177.407 5.86933 177.663 5.82667 177.962 5.784C178.303 5.74133 178.687 5.72 179.114 5.72C179.498 5.72 179.818 5.848 180.074 6.104C180.33 6.31733 180.458 6.616 180.458 7C180.458 7.64 179.839 8.06667 178.602 8.28C177.407 8.49333 176.191 8.6 174.954 8.6C169.706 8.6 167.082 7.49067 167.082 5.272ZM168.746 26.136C168.746 27.7147 169.301 29.016 170.41 30.04C171.562 31.0213 172.927 31.512 174.506 31.512C176.383 31.512 177.834 31.0213 178.858 30.04C179.925 29.0587 180.458 27.6293 180.458 25.752C180.458 24.2587 180.181 23.2133 179.626 22.616C179.071 21.976 178.239 21.4213 177.13 20.952C177.045 20.9093 176.725 20.7813 176.17 20.568C175.658 20.312 175.231 19.9707 174.89 19.544L173.61 20.12C172.415 20.632 171.498 21.08 170.858 21.464C170.218 21.848 169.706 22.424 169.322 23.192C168.938 23.9173 168.746 24.8987 168.746 26.136ZM179.562 47.512C179.562 45.336 179.989 43.5867 180.842 42.264C181.695 40.9413 182.655 39.96 183.722 39.32C184.789 38.68 186.09 38.0827 187.626 37.528C188.906 37.1013 189.674 36.7173 189.93 36.376L190.826 35.864C191.253 35.864 191.551 36.0347 191.722 36.376C191.893 36.7173 191.957 37.1227 191.914 37.592C193.663 37.5493 195.221 38.04 196.586 39.064C197.951 40.0453 198.997 41.3467 199.722 42.968C200.49 44.5467 200.874 46.168 200.874 47.832C200.874 49.7093 200.383 51.3307 199.402 52.696C198.421 54.104 197.119 55.1707 195.498 55.896C193.877 56.6213 192.149 56.984 190.314 56.984C187.199 56.984 184.618 56.152 182.57 54.488C180.565 52.8667 179.562 50.5413 179.562 47.512ZM182.89 47.704C182.89 49.8373 183.551 51.48 184.874 52.632C186.239 53.784 188.01 54.36 190.186 54.36C192.362 54.36 194.154 53.784 195.562 52.632C196.97 51.5227 197.674 49.9227 197.674 47.832C197.674 46.168 197.503 44.9093 197.162 44.056C196.821 43.16 196.373 42.52 195.818 42.136C195.263 41.752 194.41 41.368 193.258 40.984C191.679 40.344 190.613 39.8747 190.058 39.576C188.266 40.1307 186.879 40.6853 185.898 41.24C184.917 41.7947 184.17 42.584 183.658 43.608C183.146 44.5893 182.89 45.9547 182.89 47.704Z" fill="none"/>
</svg>
